<svg xmlns="http://www.w3.org/2000/svg" width="88" height="48" viewBox="0 0 88 48">
  <g id="aws" transform="translate(-39.538 -204.853)">
    <rect id="Rectangle_6688" data-name="Rectangle 6688" width="88" height="48" transform="translate(39.538 204.853)" opacity="0"/>
    <g id="Group_13485" data-name="Group 13485" transform="translate(59.87 214.321)">
      <path id="Path_23132" data-name="Path 23132" d="M24.9,10.856a4.521,4.521,0,0,0,.164,1.33,8,8,0,0,0,.478,1.076.65.65,0,0,1,.1.344.592.592,0,0,1-.284.448l-.941.628a.716.716,0,0,1-.388.134.687.687,0,0,1-.448-.209,4.622,4.622,0,0,1-.538-.7c-.149-.254-.3-.538-.463-.882a5.519,5.519,0,0,1-4.393,2.062,4.094,4.094,0,0,1-2.988-1.076A3.838,3.838,0,0,1,14.1,11.14a3.846,3.846,0,0,1,1.36-3.078A5.435,5.435,0,0,1,19.12,6.9a11.829,11.829,0,0,1,1.584.12c.553.075,1.121.194,1.718.329V6.255a3.311,3.311,0,0,0-.7-2.391,3.439,3.439,0,0,0-2.435-.687,6.8,6.8,0,0,0-1.614.194,11.9,11.9,0,0,0-1.614.508,4.287,4.287,0,0,1-.523.194.916.916,0,0,1-.239.045c-.209,0-.314-.149-.314-.463V2.923a.945.945,0,0,1,.1-.523,1.119,1.119,0,0,1,.418-.314,8.6,8.6,0,0,1,1.883-.672,9.058,9.058,0,0,1,2.331-.284,5.46,5.46,0,0,1,3.914,1.21,4.944,4.944,0,0,1,1.24,3.675v4.841Zm-6.066,2.271a4.842,4.842,0,0,0,1.539-.269,3.329,3.329,0,0,0,1.419-.956,2.372,2.372,0,0,0,.508-.956,5.364,5.364,0,0,0,.149-1.3V9.019a12.477,12.477,0,0,0-1.375-.254,11.258,11.258,0,0,0-1.4-.09,3.444,3.444,0,0,0-2.226.6,2.082,2.082,0,0,0-.732,1.718,1.928,1.928,0,0,0,2.122,2.137Zm12,1.614a.834.834,0,0,1-.568-.149,1.218,1.218,0,0,1-.314-.583L26.441,2.46a2.617,2.617,0,0,1-.134-.6.328.328,0,0,1,.359-.374h1.464a.828.828,0,0,1,.583.149,1.222,1.222,0,0,1,.3.583l2.51,9.891,2.331-9.891a1.048,1.048,0,0,1,.284-.583,1.028,1.028,0,0,1,.6-.149h1.2a.9.9,0,0,1,.6.149,1.007,1.007,0,0,1,.284.583l2.361,10.01,2.585-10.01a1.281,1.281,0,0,1,.3-.583.975.975,0,0,1,.583-.149h1.389a.332.332,0,0,1,.374.374,1.49,1.49,0,0,1-.03.239,2.126,2.126,0,0,1-.1.374l-3.6,11.549a1.146,1.146,0,0,1-.314.583.956.956,0,0,1-.568.149H38.5a.9.9,0,0,1-.6-.149,1.059,1.059,0,0,1-.284-.6L35.3,4.372,33,13.994a1.166,1.166,0,0,1-.284.6.926.926,0,0,1-.6.149Zm19.2.4a9.887,9.887,0,0,1-2.3-.269,6.8,6.8,0,0,1-1.718-.6,1.077,1.077,0,0,1-.463-.418,1.055,1.055,0,0,1-.09-.418v-.762c0-.314.12-.463.344-.463a.846.846,0,0,1,.269.045c.09.03.224.09.374.149a8.127,8.127,0,0,0,1.643.523,8.973,8.973,0,0,0,1.778.179,4.031,4.031,0,0,0,2.181-.493,1.609,1.609,0,0,0,.777-1.419,1.455,1.455,0,0,0-.4-1.046,3.749,3.749,0,0,0-1.509-.777L48.748,8.7a4.557,4.557,0,0,1-2.391-1.524,3.56,3.56,0,0,1-.747-2.166,3.325,3.325,0,0,1,.4-1.658,3.842,3.842,0,0,1,1.076-1.225,4.742,4.742,0,0,1,1.554-.777A6.512,6.512,0,0,1,50.526,1.1a7.5,7.5,0,0,1,1,.06c.344.045.657.1.971.164s.583.149.852.239a3.261,3.261,0,0,1,.628.269,1.292,1.292,0,0,1,.448.374.805.805,0,0,1,.134.493v.7c0,.314-.12.478-.344.478a1.554,1.554,0,0,1-.568-.179,6.835,6.835,0,0,0-2.869-.583,3.856,3.856,0,0,0-1.987.418,1.443,1.443,0,0,0-.7,1.33,1.411,1.411,0,0,0,.448,1.061,4.463,4.463,0,0,0,1.643.822L52.3,7.42A4.544,4.544,0,0,1,54.62,8.854a3.381,3.381,0,0,1,.687,2.092,3.841,3.841,0,0,1-.388,1.733,4.018,4.018,0,0,1-1.091,1.315,4.816,4.816,0,0,1-1.658.837A7.1,7.1,0,0,1,50.033,15.144Z" transform="translate(-10.575)" fill="#fff"/>
      <g id="Group_13484" data-name="Group 13484" transform="translate(1.668 17.848)">
        <path id="Path_23133" data-name="Path 23133" d="M42.282,122.812c-4.916,3.631-12.057,5.558-18.2,5.558A32.922,32.922,0,0,1,1.867,119.9c-.463-.418-.045-.986.508-.657a44.125,44.125,0,0,0,39.19,2.435C42.387,121.3,43.089,122.214,42.282,122.812Z" transform="translate(-1.668 -118.254)" fill="#f90" fill-rule="evenodd"/>
        <path id="Path_23134" data-name="Path 23134" d="M252.144,115.42c-.628-.807-4.154-.388-5.752-.194-.478.06-.553-.359-.12-.672,2.809-1.972,7.426-1.4,7.963-.747s-.149,5.289-2.779,7.5c-.4.344-.792.164-.613-.284C251.442,119.543,252.772,116.211,252.144,115.42Z" transform="translate(-209.483 -113.192)" fill="#f90" fill-rule="evenodd"/>
      </g>
    </g>
  </g>
</svg>
