<svg xmlns="http://www.w3.org/2000/svg" width="88" height="48" viewBox="0 0 88 48">
  <g id="js" transform="translate(-232 -205)">
    <rect id="Rectangle_6690" data-name="Rectangle 6690" width="88" height="48" transform="translate(232 205)" opacity="0"/>
    <g id="Group_13487" data-name="Group 13487" transform="translate(259.867 212.69)">
      <rect id="Rectangle_6687" data-name="Rectangle 6687" width="32" height="32" transform="translate(0.133 0.31)" fill="#f7df1e"/>
      <path id="Path_23138" data-name="Path 23138" d="M180.739,297.8a3.723,3.723,0,0,0,3.372,2.076c1.416,0,2.321-.708,2.321-1.686,0-1.172-.93-1.587-2.489-2.269l-.855-.367c-2.467-1.051-4.106-2.368-4.106-5.151,0-2.564,1.954-4.516,5.007-4.516a5.053,5.053,0,0,1,4.862,2.737l-2.662,1.709a2.325,2.325,0,0,0-2.2-1.465,1.487,1.487,0,0,0-1.636,1.465c0,1.026.635,1.441,2.1,2.076l.855.366c2.9,1.246,4.545,2.515,4.545,5.37,0,3.078-2.418,4.764-5.665,4.764a6.568,6.568,0,0,1-6.23-3.5Zm-12.076.3c.537.953,1.026,1.758,2.2,1.758,1.123,0,1.832-.439,1.832-2.148V286.085h3.419v11.67c0,3.54-2.075,5.151-5.1,5.151a5.307,5.307,0,0,1-5.128-3.123Z" transform="translate(-160.301 -273.318)"/>
    </g>
  </g>
</svg>
