<svg xmlns="http://www.w3.org/2000/svg" xmlns:xlink="http://www.w3.org/1999/xlink" width="88" height="48" viewBox="0 0 88 48">
  <defs>
    <linearGradient id="linear-gradient" x1="0.139" y1="0.613" x2="0.891" y2="0.665" gradientUnits="objectBoundingBox">
      <stop offset="0" stop-color="#0064e1"/>
      <stop offset="0.4" stop-color="#0064e1"/>
      <stop offset="0.83" stop-color="#0073ee"/>
      <stop offset="1" stop-color="#0082fb"/>
    </linearGradient>
    <linearGradient id="linear-gradient-2" x1="0.543" y1="0.828" x2="0.543" y2="0.393" gradientUnits="objectBoundingBox">
      <stop offset="0" stop-color="#0082fb"/>
      <stop offset="1" stop-color="#0064e0"/>
    </linearGradient>
  </defs>
  <g id="meta" transform="translate(-808 -205)">
    <rect id="Rectangle_6696" data-name="Rectangle 6696" width="88" height="48" transform="translate(808 205)" opacity="0"/>
    <g id="Group_13491" data-name="Group 13491" transform="translate(812.841 221.222)">
      <path id="Logo0" d="M2.566,10.406a3.959,3.959,0,0,0,.459,2.025,1.567,1.567,0,0,0,1.369.786c.669,0,1.281-.166,2.461-1.8C7.8,10.111,8.914,8.275,9.663,7.125l1.269-1.95A18.918,18.918,0,0,1,14,1.3,4.653,4.653,0,0,1,17.026,0a5.741,5.741,0,0,1,4.668,2.9,13.267,13.267,0,0,1,2.063,7.375,7.206,7.206,0,0,1-.853,3.707,3.563,3.563,0,0,1-3.231,1.8V13.217c1.456,0,1.82-1.338,1.82-2.87a12.126,12.126,0,0,0-1.63-6.336A3.7,3.7,0,0,0,16.9,2.033c-1.227,0-2.214.925-3.324,2.575-.59.877-1.2,1.945-1.875,3.15l-.748,1.326A33.45,33.45,0,0,1,8.318,13.36C7,15.114,5.876,15.779,4.394,15.779A3.849,3.849,0,0,1,.838,13.872,6.913,6.913,0,0,1,0,10.314Z" transform="translate(0 0)" fill="#0081fb"/>
      <path id="Logo1" d="M24.49,3.082A5.972,5.972,0,0,1,29.311,0a5.2,5.2,0,0,1,3.419,1.29,21.387,21.387,0,0,1,4.348,5.6l.611,1.018a42.407,42.407,0,0,0,2.8,4.314c.631.765,1.073.993,1.647.993,1.456,0,1.82-1.338,1.82-2.87l2.264-.071a7.206,7.206,0,0,1-.853,3.707,3.563,3.563,0,0,1-3.231,1.8,4.022,4.022,0,0,1-3.03-1.207,16.822,16.822,0,0,1-2.444-3.281L34.535,7.733a24.468,24.468,0,0,0-2.617-3.721A3.6,3.6,0,0,0,29.27,2.58a3.309,3.309,0,0,0-2.595,1.8Z" transform="translate(-22.467)" fill="url(#linear-gradient)"/>
      <path id="Logo2" d="M6.8,2.58a3.309,3.309,0,0,0-2.595,1.8,11.439,11.439,0,0,0-1.642,6.027,3.959,3.959,0,0,0,.459,2.025L.838,13.872A6.913,6.913,0,0,1,0,10.314,13.593,13.593,0,0,1,2.023,3.082,5.972,5.972,0,0,1,6.845,0Z" transform="translate(0 0)" fill="url(#linear-gradient-2)"/>
      <path id="Text" d="M347.94,6.04h2.968l5.047,9.131L361,6.04h2.9v15h-2.421V9.545l-4.426,7.962h-2.272l-4.426-7.962v11.5H347.94Zm23.554,5.594a3.106,3.106,0,0,0-3.033,2.925h5.894A2.816,2.816,0,0,0,371.494,11.634Zm-5.434,3.847c0-3.405,2.2-5.884,5.476-5.884,3.221,0,5.144,2.447,5.144,6.066v.665h-8.219a3.235,3.235,0,0,0,3.343,2.947,4.424,4.424,0,0,0,3.333-1.3l1.286,1.575a6.686,6.686,0,0,1-4.7,1.757A5.48,5.48,0,0,1,366.061,15.481Zm13.556-3.633h-2.229V9.866h2.229V6.587h2.336V9.866h3.386v1.983h-3.386v5.025c0,1.716.549,2.326,1.9,2.326a7.844,7.844,0,0,0,1.49-.14v1.961a6.958,6.958,0,0,1-1.94.268q-3.783,0-3.783-4.136Zm15.56,1.928a3.152,3.152,0,0,0-3.054-2.057c-2,0-3.279,1.418-3.279,3.729,0,2.253,1.178,3.74,3.183,3.74a3.287,3.287,0,0,0,3.15-2.058Zm2.336,7.266H395.22V19.478a4.312,4.312,0,0,1-3.7,1.832c-3.039,0-5.069-2.544-5.069-5.861,0-3.349,2.079-5.852,5.2-5.852a4.266,4.266,0,0,1,3.568,1.7V9.866h2.293Z" transform="translate(-319.195 -5.541)" fill="#fff"/>
    </g>
  </g>
</svg>
