<svg xmlns="http://www.w3.org/2000/svg" width="88" height="48" viewBox="0 0 88 48">
  <g id="react" transform="translate(-327.604 -204.696)">
    <rect id="Rectangle_6691" data-name="Rectangle 6691" width="88" height="48" transform="translate(327.604 204.696)" opacity="0"/>
    <g id="reactjs_logo_icon_170805" transform="translate(327.79 203.398)">
      <g id="Group_13561" data-name="Group 13561" transform="translate(7.41 13.519)">
        <circle id="Ellipse_613" data-name="Ellipse 613" cx="2.484" cy="2.484" r="2.484" transform="translate(10.831 9.272)" fill="#00d8ff"/>
        <g id="Group_13560" data-name="Group 13560" transform="translate(0 0)">
          <path id="Path_23171" data-name="Path 23171" d="M13.358,9.4a27.869,27.869,0,0,1,8.769,1.283c2.815.969,4.545,2.438,4.545,3.768,0,1.386-1.834,2.946-4.856,3.948a27.984,27.984,0,0,1-8.458,1.152,27.893,27.893,0,0,1-8.63-1.161c-2.924-1-4.684-2.58-4.684-3.939C.043,13.128,1.7,11.67,4.47,10.7A28.113,28.113,0,0,1,13.357,9.4Z" transform="translate(-0.043 -2.691)" fill="none" stroke="#00d8ff" stroke-width="1.663" fill-rule="evenodd"/>
          <path id="Path_23172" data-name="Path 23172" d="M11.107,9.259A27.87,27.87,0,0,1,16.6,2.3C18.844.349,20.981-.416,22.133.248c1.2.692,1.636,3.061.994,6.179a27.968,27.968,0,0,1-3.227,7.9,27.885,27.885,0,0,1-5.317,6.9c-2.326,2.033-4.575,2.769-5.753,2.09C7.688,22.657,7.251,20.5,7.8,17.61a28.124,28.124,0,0,1,3.307-8.351Z" transform="translate(-2.189 -0.014)" fill="none" stroke="#00d8ff" stroke-width="1.663" fill-rule="evenodd"/>
          <path id="Path_23173" data-name="Path 23173" d="M11.114,14.348A27.877,27.877,0,0,1,7.831,6.116C7.259,3.195,7.663.961,8.814.295c1.2-.694,3.469.111,5.85,2.225A27.982,27.982,0,0,1,19.9,9.262a27.888,27.888,0,0,1,3.319,8.05c.6,3.031.114,5.347-1.062,6.028C21.014,24,18.925,23.3,16.7,21.384a28.115,28.115,0,0,1-5.583-7.037Z" transform="translate(-2.192 -0.024)" fill="none" stroke="#00d8ff" stroke-width="1.663" fill-rule="evenodd"/>
        </g>
      </g>
      <path id="Path_23174" data-name="Path 23174" d="M61.353,34.342l-3.045-4.6a3.119,3.119,0,0,0,2.925-3.288,3.289,3.289,0,0,0-3.534-3.4H53.168V34.334h1.4V29.853h2.249L59.7,34.334Zm-3.821-5.715H54.572V24.315h2.959a2.158,2.158,0,1,1,0,4.313Zm9.046,5.918a4.438,4.438,0,0,0,3.247-1.251l-.609-.829A3.57,3.57,0,0,1,66.7,33.5a2.878,2.878,0,0,1-2.942-2.823h6.611v-.322c0-2.451-1.454-4.38-3.924-4.38a4.084,4.084,0,0,0-4.024,4.278,4.044,4.044,0,0,0,4.159,4.288Zm2.537-4.8h-5.36a2.725,2.725,0,0,1,2.671-2.723A2.648,2.648,0,0,1,69.115,29.742Zm9.673,4.6V28.728c0-1.978-1.437-2.757-3.162-2.757a4.273,4.273,0,0,0-3.263,1.353l.592.879a3.245,3.245,0,0,1,2.5-1.133c1.184,0,2.063.625,2.063,1.725v1.471a3.415,3.415,0,0,0-2.706-1.116,2.676,2.676,0,0,0-2.859,2.689,2.72,2.72,0,0,0,2.859,2.706,3.533,3.533,0,0,0,2.706-1.133v.929Zm-3.516-.71a1.8,1.8,0,1,1,0-3.568,2.735,2.735,0,0,1,2.249,1.015v1.539a2.736,2.736,0,0,1-2.249,1.015Zm9.648.913a3.5,3.5,0,0,0,2.993-1.42l-.845-.778a2.459,2.459,0,0,1-2.073,1.065,2.859,2.859,0,0,1-2.823-3.162,2.845,2.845,0,0,1,2.823-3.145,2.4,2.4,0,0,1,2.073,1.065l.845-.778a3.5,3.5,0,0,0-2.993-1.42,4.035,4.035,0,0,0-4.075,4.278,4.034,4.034,0,0,0,4.075,4.288Zm6.832,0a2.078,2.078,0,0,0,1.522-.524l-.372-.947a1.212,1.212,0,0,1-.863.338c-.557,0-.829-.44-.829-1.048V27.291h1.658V26.175H91.211V23.943H89.942v2.232H88.589v1.116h1.353v5.344a1.671,1.671,0,0,0,1.81,1.911Z" transform="translate(-13.055 -2.721)" fill="#00d8ff" fill-rule="evenodd"/>
    </g>
  </g>
</svg>
