<svg xmlns="http://www.w3.org/2000/svg" width="88" height="48" viewBox="0 0 88 48">
  <g id="xd" transform="translate(-616 -205)">
    <rect id="Rectangle_6694" data-name="Rectangle 6694" width="88" height="48" transform="translate(616 205)" opacity="0"/>
    <g id="Layer_2_1_" transform="translate(644.454 213.38)">
      <g id="Surfaces">
        <g id="UI_UX_Surface">
          <g id="Outline_no_shadow">
            <path id="Path_23143" data-name="Path 23143" d="M5.59,0H25.975a5.585,5.585,0,0,1,5.59,5.59v19.6a5.585,5.585,0,0,1-5.59,5.59H5.59A5.585,5.585,0,0,1,0,25.186V5.59A5.585,5.585,0,0,1,5.59,0Z" fill="#470137"/>
          </g>
        </g>
      </g>
      <g id="Outlined_Mnemonics_Logos" transform="translate(4.598 6.745)">
        <g id="Xd-2" data-name="Xd">
          <path id="Path_23144" data-name="Path 23144" d="M46.96,60.2l-3.946,6.51,4.209,6.9a.226.226,0,0,1,.026.158c-.013.053-.066.013-.145.026H44.093c-.21,0-.355-.013-.447-.145-.276-.552-.566-1.092-.842-1.644s-.579-1.092-.894-1.657-.631-1.131-.947-1.71h-.026c-.276.566-.579,1.131-.881,1.7s-.6,1.131-.894,1.683-.6,1.118-.907,1.657c-.053.132-.158.145-.3.145H35.058c-.053,0-.092.026-.092-.039a.183.183,0,0,1,.026-.145l4.09-6.707L35.1,60.184c-.039-.053-.053-.105-.026-.132A.152.152,0,0,1,35.2,60h2.985a.776.776,0,0,1,.184.026.373.373,0,0,1,.132.118c.25.566.539,1.131.842,1.7s.618,1.118.947,1.67.6,1.1.881,1.67H41.2c.276-.579.566-1.144.855-1.7s.592-1.1.894-1.657.592-1.118.881-1.657a.224.224,0,0,1,.079-.132.251.251,0,0,1,.171-.026h2.775a.121.121,0,0,1,.145.092c.013.013-.013.066-.039.092Z" transform="translate(-34.961 -58.854)" fill="#ff61f6"/>
          <path id="Path_23145" data-name="Path 23145" d="M135.834,66.5a6.538,6.538,0,0,1-2.828-.592,4.585,4.585,0,0,1-1.986-1.789,5.691,5.691,0,0,1-.723-3,5.4,5.4,0,0,1,.723-2.775,5.461,5.461,0,0,1,2.091-2.039,6.727,6.727,0,0,1,3.327-.763,2.349,2.349,0,0,1,.276.013c.118.013.25.013.408.026V51.431c0-.092.039-.145.132-.145h2.67a.118.118,0,0,1,.132.092V63.925c0,.237.013.5.026.789s.039.539.053.763a.214.214,0,0,1-.132.21,10.044,10.044,0,0,1-2.144.631A11.6,11.6,0,0,1,135.834,66.5Zm1.289-2.63V58.086a3.366,3.366,0,0,0-.355-.066c-.145-.013-.289-.026-.434-.026a3.242,3.242,0,0,0-1.486.342,2.948,2.948,0,0,0-1.118.973,2.915,2.915,0,0,0-.434,1.67,3.665,3.665,0,0,0,.224,1.355,2.57,2.57,0,0,0,.592.934,2.272,2.272,0,0,0,.894.526,3.443,3.443,0,0,0,1.092.171c.2,0,.381-.013.552-.026A1.15,1.15,0,0,0,137.123,63.873Z" transform="translate(-117.758 -51.284)" fill="#ff61f6"/>
        </g>
      </g>
    </g>
  </g>
</svg>
